<svg id="visual" viewBox="0 0 960 540" width="960" height="540" xmlns="http://www.w3.org/2000/svg" xmlns:xlink="http://www.w3.org/1999/xlink" version="1.1"><rect x="0" y="0" width="960" height="540" fill="#1e1e2a"></rect><defs><linearGradient id="grad1_0" x1="43.8%" y1="100%" x2="100%" y2="0%"><stop offset="14.444444444444446%" stop-color="#4017e8" stop-opacity="1"></stop><stop offset="85.55555555555554%" stop-color="#4017e8" stop-opacity="1"></stop></linearGradient></defs><defs><linearGradient id="grad1_1" x1="43.8%" y1="100%" x2="100%" y2="0%"><stop offset="14.444444444444446%" stop-color="#4017e8" stop-opacity="1"></stop><stop offset="85.55555555555554%" stop-color="#1e1e2a" stop-opacity="1"></stop></linearGradient></defs><defs><linearGradient id="grad2_0" x1="0%" y1="100%" x2="56.3%" y2="0%"><stop offset="14.444444444444446%" stop-color="#4017e8" stop-opacity="1"></stop><stop offset="85.55555555555554%" stop-color="#4017e8" stop-opacity="1"></stop></linearGradient></defs><defs><linearGradient id="grad2_1" x1="0%" y1="100%" x2="56.3%" y2="0%"><stop offset="14.444444444444446%" stop-color="#1e1e2a" stop-opacity="1"></stop><stop offset="85.55555555555554%" stop-color="#4017e8" stop-opacity="1"></stop></linearGradient></defs><g transform="translate(960, 540)"><path d="M-378 0C-362.7 -34.5 -347.5 -69 -340.5 -110.6C-333.5 -152.3 -334.8 -201.2 -305.8 -222.2C-276.8 -243.2 -217.4 -236.4 -180.5 -248.4C-143.5 -260.3 -128.9 -291 -102.6 -315.8C-76.3 -340.5 -38.1 -359.2 0 -378L0 0Z" fill="#1e2989"></path><path d="M-189 0C-181.4 -17.2 -173.7 -34.5 -170.2 -55.3C-166.8 -76.1 -167.4 -100.6 -152.9 -111.1C-138.4 -121.6 -108.7 -118.2 -90.2 -124.2C-71.7 -130.2 -64.5 -145.5 -51.3 -157.9C-38.1 -170.2 -19.1 -179.6 0 -189L0 0Z" fill="#4017e8"></path></g><g transform="translate(0, 0)"><path d="M378 0C380.4 44.1 382.8 88.1 359.5 116.8C336.2 145.5 287.2 158.7 262.9 191C238.6 223.3 239 274.7 215.1 296.1C191.2 317.5 143.1 309 103.2 317.7C63.3 326.3 31.7 352.2 0 378L0 0Z" fill="#1e2989"></path><path d="M189 0C190.2 22 191.4 44.1 179.7 58.4C168.1 72.7 143.6 79.4 131.5 95.5C119.3 111.7 119.5 137.3 107.6 148.1C95.6 158.8 71.6 154.5 51.6 158.8C31.7 163.2 15.8 176.1 0 189L0 0Z" fill="#4017e8"></path></g></svg>