<svg id="visual" viewBox="0 0 960 540" width="960" height="540" xmlns="http://www.w3.org/2000/svg" xmlns:xlink="http://www.w3.org/1999/xlink" version="1.1"><rect x="0" y="0" width="960" height="540" fill="#1e1e2a"></rect><path d="M0 331L16 335.3C32 339.7 64 348.3 96 353.8C128 359.3 160 361.7 192 362.8C224 364 256 364 288 365C320 366 352 368 384 362.5C416 357 448 344 480 347.3C512 350.7 544 370.3 576 377.2C608 384 640 378 672 364.7C704 351.3 736 330.7 768 327.7C800 324.7 832 339.3 864 341C896 342.7 928 331.3 944 325.7L960 320L960 541L944 541C928 541 896 541 864 541C832 541 800 541 768 541C736 541 704 541 672 541C640 541 608 541 576 541C544 541 512 541 480 541C448 541 416 541 384 541C352 541 320 541 288 541C256 541 224 541 192 541C160 541 128 541 96 541C64 541 32 541 16 541L0 541Z" fill="#824dfe"></path><path d="M0 441L16 434.8C32 428.7 64 416.3 96 405.3C128 394.3 160 384.7 192 385.7C224 386.7 256 398.3 288 399.2C320 400 352 390 384 388.5C416 387 448 394 480 397.5C512 401 544 401 576 397.3C608 393.7 640 386.3 672 388.5C704 390.7 736 402.3 768 408.8C800 415.3 832 416.7 864 411C896 405.3 928 392.7 944 386.3L960 380L960 541L944 541C928 541 896 541 864 541C832 541 800 541 768 541C736 541 704 541 672 541C640 541 608 541 576 541C544 541 512 541 480 541C448 541 416 541 384 541C352 541 320 541 288 541C256 541 224 541 192 541C160 541 128 541 96 541C64 541 32 541 16 541L0 541Z" fill="#6534f3"></path><path d="M0 502L16 491.8C32 481.7 64 461.3 96 451C128 440.7 160 440.3 192 440.7C224 441 256 442 288 446C320 450 352 457 384 460C416 463 448 462 480 466.7C512 471.3 544 481.7 576 481C608 480.3 640 468.7 672 467.3C704 466 736 475 768 482.7C800 490.3 832 496.7 864 491.8C896 487 928 471 944 463L960 455L960 541L944 541C928 541 896 541 864 541C832 541 800 541 768 541C736 541 704 541 672 541C640 541 608 541 576 541C544 541 512 541 480 541C448 541 416 541 384 541C352 541 320 541 288 541C256 541 224 541 192 541C160 541 128 541 96 541C64 541 32 541 16 541L0 541Z" fill="#4017e8"></path></svg>