<svg id="visual" viewBox="0 0 960 540" width="960" height="540" xmlns="http://www.w3.org/2000/svg" xmlns:xlink="http://www.w3.org/1999/xlink" version="1.1"><rect x="0" y="0" width="960" height="540" fill="#1e1e2a"></rect><path d="M0 207L16 202.7C32 198.3 64 189.7 96 184.2C128 178.7 160 176.3 192 175.2C224 174 256 174 288 173C320 172 352 170 384 175.5C416 181 448 194 480 190.7C512 187.3 544 167.7 576 160.8C608 154 640 160 672 173.3C704 186.7 736 207.3 768 210.3C800 213.3 832 198.7 864 197C896 195.3 928 206.7 944 212.3L960 218L960 0L944 0C928 0 896 0 864 0C832 0 800 0 768 0C736 0 704 0 672 0C640 0 608 0 576 0C544 0 512 0 480 0C448 0 416 0 384 0C352 0 320 0 288 0C256 0 224 0 192 0C160 0 128 0 96 0C64 0 32 0 16 0L0 0Z" fill="#824dfe"></path><path d="M0 97L16 103.2C32 109.3 64 121.7 96 132.7C128 143.7 160 153.3 192 152.3C224 151.3 256 139.7 288 138.8C320 138 352 148 384 149.5C416 151 448 144 480 140.5C512 137 544 137 576 140.7C608 144.3 640 151.7 672 149.5C704 147.3 736 135.7 768 129.2C800 122.7 832 121.3 864 127C896 132.7 928 145.3 944 151.7L960 158L960 0L944 0C928 0 896 0 864 0C832 0 800 0 768 0C736 0 704 0 672 0C640 0 608 0 576 0C544 0 512 0 480 0C448 0 416 0 384 0C352 0 320 0 288 0C256 0 224 0 192 0C160 0 128 0 96 0C64 0 32 0 16 0L0 0Z" fill="#6534f3"></path><path d="M0 36L16 46.2C32 56.3 64 76.7 96 87C128 97.3 160 97.7 192 97.3C224 97 256 96 288 92C320 88 352 81 384 78C416 75 448 76 480 71.3C512 66.7 544 56.3 576 57C608 57.7 640 69.3 672 70.7C704 72 736 63 768 55.3C800 47.7 832 41.3 864 46.2C896 51 928 67 944 75L960 83L960 0L944 0C928 0 896 0 864 0C832 0 800 0 768 0C736 0 704 0 672 0C640 0 608 0 576 0C544 0 512 0 480 0C448 0 416 0 384 0C352 0 320 0 288 0C256 0 224 0 192 0C160 0 128 0 96 0C64 0 32 0 16 0L0 0Z" fill="#4017e8"></path></svg>